<svg xmlns="http://www.w3.org/2000/svg" width="45" height="33" fill="none" viewBox="0 0 45 33"><path fill="#8a96af" d="M43.524 1.99a1 1 0 1 0-.272-1.98l.136.99zM3.46 32.377a1 1 0 0 0 1.303.55l8.338-3.387a1 1 0 0 0-.752-1.853l-7.412 3.011-3.011-7.412a1 1 0 0 0-1.853.753zM4.388 32l.92.389.38-.894-.92-.391-.921-.391-.38.898zm2.68-6.171.911.412q.403-.89.797-1.733l-.906-.424-.906-.424q-.4.856-.807 1.757zm3.397-6.892.875.483q.468-.847.938-1.634l-.858-.513-.858-.514q-.49.82-.973 1.695zm4.255-6.377.767.642q.602-.72 1.234-1.373l-.72-.695-.719-.695q-.683.708-1.328 1.48zm5.734-5.057.535.845a25 25 0 0 1 1.596-.93l-.47-.881-.472-.882q-.893.477-1.724 1.003zm6.96-3.198.315.95q.87-.288 1.8-.556l-.276-.961-.276-.961q-.968.277-1.877.579zm7.444-1.906.196.98q.91-.182 1.87-.355l-.178-.984-.178-.984q-.977.176-1.906.362zm7.564-1.264.14.99q.476-.068.962-.134L43.388 1l-.136-.99q-.49.067-.97.135zm1.102.856a1 1 0 1 0-.272-1.982l.136.991zM3.46 32.376a1 1 0 0 0 1.303.55l8.338-3.387a1 1 0 0 0-.752-1.853l-7.412 3.011-3.011-7.412a1 1 0 0 0-1.853.753zM4.388 32l.92.389.38-.894-.92-.391-.921-.391-.38.898zm2.68-6.171.911.412q.403-.89.797-1.733l-.906-.424-.906-.424q-.4.856-.807 1.757zm3.397-6.892.875.483q.468-.847.938-1.634l-.858-.513-.858-.514q-.49.82-.973 1.695zm4.255-6.377.767.642q.602-.72 1.234-1.373l-.72-.695-.719-.695q-.683.708-1.328 1.48zm5.734-5.057.535.845a25 25 0 0 1 1.596-.93l-.47-.881-.472-.882q-.893.477-1.724 1.003zm6.96-3.198.315.95q.87-.288 1.8-.556l-.276-.961-.276-.961q-.968.277-1.877.579zm7.444-1.906.196.98q.91-.182 1.87-.355l-.178-.984-.178-.984q-.977.176-1.906.362zm7.564-1.264.14.99q.476-.068.962-.134L43.388 1l-.136-.99q-.49.067-.97.135z"/></svg>