<svg xmlns="http://www.w3.org/2000/svg" width="66" height="99" fill="none" viewBox="0 0 66 99"><path fill="#8a96af" d="M1.345.181.362.001 0 1.966l.983.181.181-.983zM56.88 34.665l.902-.432zm-.892 63.453a1 1 0 0 0 1.345.438l8.022-4.08a1 1 0 1 0-.907-1.783l-7.13 3.627-3.627-7.13a1 1 0 1 0-1.783.906zM1.164 1.165l-.18.983h.002l.011.003.236.045q.254.049.743.152l.206-.979.206-.979A60 60 0 0 0 1.346.181zm7.131 1.687-.26.965q.95.256 1.996.556l.276-.96.276-.962q-1.062-.304-2.027-.565zm8.015 2.436-.32.947q.966.327 1.967.683l.335-.942.336-.942a131 131 0 0 0-1.997-.693zm7.855 2.949-.383.924q.949.393 1.909.813l.4-.916.4-.917q-.976-.426-1.942-.828zm7.613 3.51-.455.89q.919.471 1.835.966l.475-.88.476-.88a93 93 0 0 0-1.875-.986zm7.27 4.17-.54.841q.868.56 1.72 1.145l.566-.825.566-.825a73 73 0 0 0-1.77-1.176zm6.753 4.964-.645.764q.787.664 1.546 1.356l.674-.739.674-.738a56 56 0 0 0-1.604-1.407zm5.938 5.905-.765.643q.66.785 1.276 1.598l.797-.604.797-.604a43 43 0 0 0-1.339-1.677zm4.672 6.94-.888.46q.234.45.454.91l.902-.431.902-.432a35 35 0 0 0-.482-.967zm.468.939-.902.431q.212.443.414.89l.911-.41.912-.412q-.212-.468-.433-.931zm2.55 6.546-.955.297q.292.94.55 1.894l.965-.261.965-.261a56 56 0 0 0-.57-1.965zm1.838 7.82-.986.164q.163.977.299 1.958l.99-.136.99-.137a70 70 0 0 0-.307-2.015zm.887 7.985-.999.059q.059.993.094 1.984l1-.035 1-.036a88 88 0 0 0-.097-2.031zm.116 8.036-1-.028q-.027 1.001-.074 1.99l1 .047.998.046q.047-1.007.075-2.028zm-.517 8.018-.995-.1a122 122 0 0 1-.214 1.986l.993.115.993.115q.117-.996.218-2.017zm-1.052 7.974-.987-.162q-.165 1.005-.336 1.966l.984.176.985.176q.174-.975.34-1.995zm-1.528 7.895-.976-.219q-.229 1.023-.45 1.943l.973.233.972.233q.225-.934.457-1.972zm-2 7.767-.958-.286a58 58 0 0 1-.27.879q-.008.03-.013.043l-.004.013.95.31.952.31v-.002l.001-.004.004-.013.016-.05.06-.188q.078-.25.221-.726zM1.346.181.362.001 0 1.966l.983.181.181-.983zM56.88 34.665l.902-.432zm-.892 63.453a1 1 0 0 0 1.345.438l8.022-4.08a1 1 0 1 0-.907-1.783l-7.13 3.627-3.627-7.13a1 1 0 1 0-1.783.906zM1.164 1.165l-.18.983h.002l.011.003.236.045q.254.049.743.152l.206-.979.206-.979A60 60 0 0 0 1.346.181zm7.131 1.687-.26.965q.95.256 1.996.556l.276-.96.276-.962q-1.062-.304-2.027-.565zm8.015 2.436-.32.947q.966.327 1.967.683l.335-.942.336-.942a131 131 0 0 0-1.997-.693zm7.855 2.949-.383.924q.949.393 1.909.813l.4-.916.4-.917q-.976-.426-1.942-.828zm7.613 3.51-.455.89q.919.471 1.835.966l.475-.88.476-.88a93 93 0 0 0-1.875-.986zm7.27 4.17-.54.841q.868.56 1.72 1.145l.566-.825.566-.825a73 73 0 0 0-1.77-1.176zm6.753 4.964-.645.764q.787.664 1.546 1.356l.674-.739.674-.738a56 56 0 0 0-1.604-1.407zm5.938 5.905-.765.643q.66.785 1.276 1.598l.797-.604.797-.604a43 43 0 0 0-1.339-1.677zm4.672 6.94-.888.46q.234.45.454.91l.902-.431.902-.432a35 35 0 0 0-.482-.967zm.468.939-.902.431q.212.443.414.89l.911-.41.912-.412q-.212-.468-.433-.931zm2.55 6.546-.955.297q.292.94.55 1.894l.965-.261.965-.261a56 56 0 0 0-.57-1.965zm1.838 7.82-.986.164q.163.977.299 1.958l.99-.136.99-.137a70 70 0 0 0-.307-2.015zm.887 7.985-.999.059q.059.993.094 1.984l1-.035 1-.036a88 88 0 0 0-.097-2.031zm.116 8.036-1-.028q-.027 1.001-.074 1.99l1 .047.998.046q.047-1.007.075-2.028zm-.517 8.018-.995-.1a122 122 0 0 1-.214 1.986l.993.115.993.115q.117-.996.218-2.017zm-1.052 7.974-.987-.162q-.165 1.005-.336 1.966l.984.176.985.176q.174-.975.34-1.995zm-1.528 7.895-.976-.219q-.229 1.023-.45 1.943l.973.233.972.233q.225-.934.457-1.972zm-2 7.767-.958-.286a58 58 0 0 1-.27.879q-.008.03-.013.043l-.004.013.95.31.952.31v-.002l.001-.004.004-.013.016-.05.06-.188q.078-.25.221-.726z"/></svg>