<svg xmlns="http://www.w3.org/2000/svg" width="30" height="30" fill="none" viewBox="0 0 30 30"><path fill="#fff" d="M15.034 2.12c.762-.02 1.39-.011 2.152.081a12.5 12.5 0 0 1 8.316 4.648 12.75 12.75 0 0 1 2.642 9.507 12.43 12.43 0 0 1-4.808 8.319 12.83 12.83 0 0 1-9.328 2.519c-1.687-.187-2.675-.81-4.031-1.73a3 3 0 0 1-.103.123c-.806.91-2.476 1.69-3.695 1.753-.477.025-.991-.026-1.362-.352-.463-.406-.36-1.02-.401-1.578a13 13 0 0 0-.233-1.67c-.226-1.108-.57-2.244-.848-3.35a23.5 23.5 0 0 1-.685-4.225c-.05-.807-.064-1.894.014-2.686a12.3 12.3 0 0 1 3.04-6.983c2.443-2.725 5.67-4.165 9.33-4.377m-3.02 17.872c.892.526 1.68.92 2.74 1.04a6.46 6.46 0 0 0 4.695-1.312 6.44 6.44 0 0 0 2.488-4.32c.196-1.63-.347-3.346-1.373-4.627a6.54 6.54 0 0 0-4.34-2.406 6 6 0 0 0-1.16-.038c-1.751.146-3.174.771-4.322 2.118-1.653 1.941-1.948 4.556-1.732 6.999.072.82.41 3.09 1.042 3.62.08.066.158.1.262.091.385-.03.992-.545 1.278-.796.138-.121.27-.265.422-.37"/></svg>