<svg xmlns="http://www.w3.org/2000/svg" width="66" height="99" viewBox="0 0 66 99" fill="none">
  <path d="M1.34524 0.181045L0.361736 0.000169992L-1.3113e-05 1.96718L0.983493 2.14806L1.16437 1.16455L1.34524 0.181045ZM56.8787 34.6646L57.7805 34.2326L56.8787 34.6646ZM55.9873 98.1179C56.2377 98.6102 56.8397 98.8063 57.332 98.5559L65.354 94.4757C65.8463 94.2254 66.0424 93.6233 65.792 93.1311C65.5416 92.6388 64.9396 92.4427 64.4473 92.6931L57.3166 96.3199L53.6898 89.1892C53.4395 88.6969 52.8374 88.5008 52.3452 88.7512C51.8529 89.0016 51.6568 89.6036 51.9072 90.0959L55.9873 98.1179ZM1.16437 1.16455C0.983493 2.14806 0.983472 2.14805 0.983452 2.14805C0.983447 2.14805 0.983429 2.14805 0.983419 2.14804C0.9834 2.14804 0.983386 2.14804 0.983378 2.14804C0.983362 2.14803 0.983367 2.14803 0.983394 2.14804C0.983448 2.14805 0.983589 2.14807 0.983817 2.14812C0.984273 2.1482 0.985076 2.14835 0.986225 2.14856C0.988522 2.14899 0.992201 2.14967 0.997248 2.15062C1.00734 2.1525 1.02291 2.15543 1.04384 2.15941C1.08571 2.16737 1.14903 2.17953 1.23293 2.19602C1.40074 2.229 1.65086 2.27926 1.97634 2.34767L2.18204 1.36906L2.38775 0.390443C2.05337 0.320158 1.79466 0.26816 1.61859 0.23356C1.53056 0.216259 1.46318 0.203307 1.41733 0.194592C1.39441 0.190234 1.37687 0.186936 1.36482 0.184683C1.35879 0.183556 1.35414 0.182691 1.35087 0.182085C1.34924 0.181782 1.34795 0.181544 1.34701 0.181371C1.34654 0.181284 1.34616 0.181214 1.34586 0.181159C1.34572 0.181132 1.34559 0.181109 1.34549 0.18109C1.34544 0.18108 1.34539 0.181072 1.34535 0.181064C1.34533 0.18106 1.3453 0.181056 1.34529 0.181054C1.34527 0.181049 1.34524 0.181045 1.16437 1.16455ZM8.29546 2.85164L8.03459 3.81702C8.66775 3.98812 9.33451 4.17342 10.0311 4.3734L10.307 3.41222L10.583 2.45105C9.87601 2.24809 9.19919 2.05999 8.55633 1.88627L8.29546 2.85164ZM16.3102 5.28781L15.9897 6.23506C16.6339 6.45303 17.2902 6.68066 17.9568 6.91819L18.2924 5.9762L18.6281 5.03422C17.9511 4.79298 17.2847 4.56184 16.6306 4.34056L16.3102 5.28781ZM24.165 8.23697L23.7815 9.16051C24.4142 9.42324 25.051 9.6943 25.6906 9.97383L26.0911 9.05752L26.4916 8.14122C25.8403 7.8566 25.1922 7.58073 24.5485 7.31343L24.165 8.23697ZM31.7783 11.7475L31.3226 12.6376C31.9355 12.9514 32.5475 13.2732 33.1576 13.6031L33.6333 12.7235L34.109 11.8439C33.4852 11.5065 32.8598 11.1777 32.2339 10.8573L31.7783 11.7475ZM39.0488 15.9176L38.5071 16.7582C39.0864 17.1314 39.6606 17.5129 40.2287 17.9027L40.7945 17.0781L41.3602 16.2535C40.7757 15.8525 40.1854 15.4603 39.5904 15.077L39.0488 15.9176ZM45.8009 20.8806L45.1558 21.6446C45.681 22.0881 46.1967 22.5403 46.7021 23.0012L47.376 22.2624L48.0499 21.5236C47.5251 21.0449 46.9901 20.5759 46.4461 20.1166L45.8009 20.8806ZM51.7394 26.7857L50.9738 27.4291C51.4135 27.9523 51.8391 28.4848 52.2498 29.0268L53.0469 28.423L53.8439 27.8191C53.4123 27.2494 52.9656 26.6906 52.505 26.1424L51.7394 26.7857ZM56.4108 33.7255L55.5227 34.1853C55.6787 34.4865 55.8301 34.7903 55.9768 35.0965L56.8787 34.6646L57.7805 34.2326C57.6248 33.9075 57.4642 33.5852 57.2989 33.2658L56.4108 33.7255ZM56.8787 34.6646L55.9768 35.0965C56.1181 35.3916 56.2561 35.6883 56.3909 35.9867L57.3023 35.5752L58.2136 35.1636C58.0728 34.8517 57.9284 34.5413 57.7805 34.2326L56.8787 34.6646ZM59.4291 41.2113L58.4741 41.5076C58.6686 42.1347 58.8517 42.7664 59.0236 43.4021L59.9889 43.141L60.9542 42.8799C60.7761 42.2212 60.5862 41.566 60.3842 40.9149L59.4291 41.2113ZM61.2669 49.0301L60.2807 49.1954C60.3898 49.8463 60.4892 50.4991 60.5795 51.1534L61.5701 51.0168L62.5607 50.8802C62.4679 50.2073 62.3656 49.5352 62.2532 48.8648L61.2669 49.0301ZM62.1537 57.016L61.1554 57.075C61.1946 57.7373 61.2258 58.399 61.2495 59.0595L62.2488 59.0237L63.2482 58.9879C63.224 58.3123 63.1921 57.6351 63.152 56.9569L62.1537 57.016ZM62.2696 65.0516L61.27 65.0242C61.2517 65.6914 61.227 66.355 61.1963 67.0145L62.1952 67.061L63.1941 67.1075C63.2254 66.4356 63.2506 65.7592 63.2692 65.079L62.2696 65.0516ZM61.7531 73.0696L60.758 72.9704C60.6913 73.6397 60.6197 74.3017 60.5437 74.9555L61.537 75.0709L62.5303 75.1863C62.6075 74.522 62.6804 73.8492 62.7482 73.1687L61.7531 73.0696ZM60.7008 81.0437L59.7139 80.8825C59.6045 81.5522 59.4922 82.2079 59.3779 82.8484L60.3623 83.0241L61.3468 83.1998C61.4628 82.55 61.5767 81.8846 61.6877 81.2049L60.7008 81.0437ZM59.1732 88.9386L58.1973 88.7201C58.0448 89.4014 57.8941 90.0499 57.7473 90.6628L58.7198 90.8957L59.6923 91.1287C59.8413 90.5065 59.9943 89.8484 60.149 89.157L59.1732 88.9386ZM57.1737 96.706L56.2154 96.4202C56.1234 96.7285 56.051 96.964 56.0018 97.1215C55.9771 97.2003 55.9584 97.2595 55.9459 97.2986C55.9396 97.3182 55.935 97.3327 55.9319 97.3421C55.9304 97.3468 55.9293 97.3502 55.9286 97.3523C55.9283 97.3534 55.9281 97.3541 55.9279 97.3546C55.9279 97.3548 55.9278 97.3549 55.9278 97.3549C55.9278 97.355 55.9278 97.355 55.9278 97.355C55.9278 97.355 55.9278 97.3549 55.9278 97.3549C55.9278 97.3549 55.9278 97.3549 55.9278 97.3549C55.9278 97.3549 55.9278 97.3549 56.8787 97.6646C57.8295 97.9743 57.8295 97.9742 57.8295 97.9742C57.8295 97.9742 57.8295 97.9742 57.8295 97.9742C57.8295 97.9741 57.8296 97.9741 57.8296 97.974C57.8296 97.9739 57.8296 97.9738 57.8297 97.9737C57.8298 97.9734 57.8299 97.973 57.83 97.9726C57.8303 97.9717 57.8307 97.9705 57.8312 97.969C57.8322 97.9659 57.8336 97.9615 57.8354 97.9559C57.8391 97.9446 57.8443 97.9282 57.8512 97.9067C57.8649 97.8638 57.8849 97.8007 57.9108 97.7179C57.9625 97.5524 58.0375 97.3087 58.132 96.9918L57.1737 96.706ZM1.34524 0.181045L0.361736 0.000169992L-1.3113e-05 1.96718L0.983493 2.14806L1.16437 1.16455L1.34524 0.181045ZM56.8787 34.6646L57.7805 34.2326L56.8787 34.6646ZM55.9873 98.1179C56.2377 98.6102 56.8397 98.8063 57.332 98.5559L65.354 94.4757C65.8463 94.2254 66.0424 93.6233 65.792 93.1311C65.5416 92.6388 64.9396 92.4427 64.4473 92.6931L57.3166 96.3199L53.6898 89.1892C53.4395 88.6969 52.8374 88.5008 52.3452 88.7512C51.8529 89.0016 51.6568 89.6036 51.9072 90.0959L55.9873 98.1179ZM1.16437 1.16455C0.983493 2.14806 0.983472 2.14805 0.983452 2.14805C0.983447 2.14805 0.983429 2.14805 0.983419 2.14804C0.9834 2.14804 0.983386 2.14804 0.983378 2.14804C0.983362 2.14803 0.983367 2.14803 0.983394 2.14804C0.983448 2.14805 0.983589 2.14807 0.983817 2.14812C0.984273 2.1482 0.985076 2.14835 0.986225 2.14856C0.988522 2.14899 0.992201 2.14967 0.997248 2.15062C1.00734 2.1525 1.02291 2.15543 1.04384 2.15941C1.08571 2.16737 1.14903 2.17953 1.23293 2.19602C1.40074 2.229 1.65086 2.27926 1.97634 2.34767L2.18204 1.36906L2.38775 0.390443C2.05337 0.320158 1.79466 0.26816 1.61859 0.23356C1.53056 0.216259 1.46318 0.203307 1.41733 0.194592C1.39441 0.190234 1.37687 0.186936 1.36482 0.184683C1.35879 0.183556 1.35414 0.182691 1.35087 0.182085C1.34924 0.181782 1.34795 0.181544 1.34701 0.181371C1.34654 0.181284 1.34616 0.181214 1.34586 0.181159C1.34572 0.181132 1.34559 0.181109 1.34549 0.18109C1.34544 0.18108 1.34539 0.181072 1.34535 0.181064C1.34533 0.18106 1.3453 0.181056 1.34529 0.181054C1.34527 0.181049 1.34524 0.181045 1.16437 1.16455ZM8.29546 2.85164L8.03459 3.81702C8.66775 3.98812 9.33451 4.17342 10.0311 4.3734L10.307 3.41222L10.583 2.45105C9.87601 2.24809 9.19919 2.05999 8.55633 1.88627L8.29546 2.85164ZM16.3102 5.28781L15.9897 6.23506C16.6339 6.45303 17.2902 6.68066 17.9568 6.91819L18.2924 5.9762L18.6281 5.03422C17.9511 4.79298 17.2847 4.56184 16.6306 4.34056L16.3102 5.28781ZM24.165 8.23697L23.7815 9.16051C24.4142 9.42324 25.051 9.6943 25.6906 9.97383L26.0911 9.05752L26.4916 8.14122C25.8403 7.8566 25.1922 7.58073 24.5485 7.31343L24.165 8.23697ZM31.7783 11.7475L31.3226 12.6376C31.9355 12.9514 32.5475 13.2732 33.1576 13.6031L33.6333 12.7235L34.109 11.8439C33.4852 11.5065 32.8598 11.1777 32.2339 10.8573L31.7783 11.7475ZM39.0488 15.9176L38.5071 16.7582C39.0864 17.1314 39.6606 17.5129 40.2287 17.9027L40.7945 17.0781L41.3602 16.2535C40.7757 15.8525 40.1854 15.4603 39.5904 15.077L39.0488 15.9176ZM45.8009 20.8806L45.1558 21.6446C45.681 22.0881 46.1967 22.5403 46.7021 23.0012L47.376 22.2624L48.0499 21.5236C47.5251 21.0449 46.9901 20.5759 46.4461 20.1166L45.8009 20.8806ZM51.7394 26.7857L50.9738 27.4291C51.4135 27.9523 51.8391 28.4848 52.2498 29.0268L53.0469 28.423L53.8439 27.8191C53.4123 27.2494 52.9656 26.6906 52.505 26.1424L51.7394 26.7857ZM56.4108 33.7255L55.5227 34.1853C55.6787 34.4865 55.8301 34.7903 55.9768 35.0965L56.8787 34.6646L57.7805 34.2326C57.6248 33.9075 57.4642 33.5852 57.2989 33.2658L56.4108 33.7255ZM56.8787 34.6646L55.9768 35.0965C56.1181 35.3916 56.2561 35.6883 56.3909 35.9867L57.3023 35.5752L58.2136 35.1636C58.0728 34.8517 57.9284 34.5413 57.7805 34.2326L56.8787 34.6646ZM59.4291 41.2113L58.4741 41.5076C58.6686 42.1347 58.8517 42.7664 59.0236 43.4021L59.9889 43.141L60.9542 42.8799C60.7761 42.2212 60.5862 41.566 60.3842 40.9149L59.4291 41.2113ZM61.2669 49.0301L60.2807 49.1954C60.3898 49.8463 60.4892 50.4991 60.5795 51.1534L61.5701 51.0168L62.5607 50.8802C62.4679 50.2073 62.3656 49.5352 62.2532 48.8648L61.2669 49.0301ZM62.1537 57.016L61.1554 57.075C61.1946 57.7373 61.2258 58.399 61.2495 59.0595L62.2488 59.0237L63.2482 58.9879C63.224 58.3123 63.1921 57.6351 63.152 56.9569L62.1537 57.016ZM62.2696 65.0516L61.27 65.0242C61.2517 65.6914 61.227 66.355 61.1963 67.0145L62.1952 67.061L63.1941 67.1075C63.2254 66.4356 63.2506 65.7592 63.2692 65.079L62.2696 65.0516ZM61.7531 73.0696L60.758 72.9704C60.6913 73.6397 60.6197 74.3017 60.5437 74.9555L61.537 75.0709L62.5303 75.1863C62.6075 74.522 62.6804 73.8492 62.7482 73.1687L61.7531 73.0696ZM60.7008 81.0437L59.7139 80.8825C59.6045 81.5522 59.4922 82.2079 59.3779 82.8484L60.3623 83.0241L61.3468 83.1998C61.4628 82.55 61.5767 81.8846 61.6877 81.2049L60.7008 81.0437ZM59.1732 88.9386L58.1973 88.7201C58.0448 89.4014 57.8941 90.0499 57.7473 90.6628L58.7198 90.8957L59.6923 91.1287C59.8413 90.5065 59.9943 89.8484 60.149 89.157L59.1732 88.9386ZM57.1737 96.706L56.2154 96.4202C56.1234 96.7285 56.051 96.964 56.0018 97.1215C55.9771 97.2003 55.9584 97.2595 55.9459 97.2986C55.9396 97.3182 55.935 97.3327 55.9319 97.3421C55.9304 97.3468 55.9293 97.3502 55.9286 97.3523C55.9283 97.3534 55.9281 97.3541 55.9279 97.3546C55.9279 97.3548 55.9278 97.3549 55.9278 97.3549C55.9278 97.355 55.9278 97.355 55.9278 97.355C55.9278 97.355 55.9278 97.3549 55.9278 97.3549C55.9278 97.3549 55.9278 97.3549 55.9278 97.3549C55.9278 97.3549 55.9278 97.3549 56.8787 97.6646C57.8295 97.9743 57.8295 97.9742 57.8295 97.9742C57.8295 97.9742 57.8295 97.9742 57.8295 97.9742C57.8295 97.9741 57.8296 97.9741 57.8296 97.974C57.8296 97.9739 57.8296 97.9738 57.8297 97.9737C57.8298 97.9734 57.8299 97.973 57.83 97.9726C57.8303 97.9717 57.8307 97.9705 57.8312 97.969C57.8322 97.9659 57.8336 97.9615 57.8354 97.9559C57.8391 97.9446 57.8443 97.9282 57.8512 97.9067C57.8649 97.8638 57.8849 97.8007 57.9108 97.7179C57.9625 97.5524 58.0375 97.3087 58.132 96.9918L57.1737 96.706Z" fill="#8A96AF"/>
</svg>