<svg xmlns="http://www.w3.org/2000/svg" width="40" height="40" viewBox="0 0 40 40" fill="none">
  <path d="M26.6667 11.6666V6.66659C26.6667 4.82564 25.1744 3.33325 23.3334 3.33325H16.6667C14.8258 3.33325 13.3334 4.82564 13.3334 6.66659V11.6666M36.6667 19.9999L20.6537 23.2026C20.2222 23.2888 19.7779 23.2888 19.3464 23.2026L3.33337 19.9999M6.66671 36.6666H33.3334C35.1744 36.6666 36.6667 35.1743 36.6667 33.3333V14.9999C36.6667 13.159 35.1744 11.6666 33.3334 11.6666H6.66671C4.82576 11.6666 3.33337 13.159 3.33337 14.9999V33.3333C3.33337 35.1743 4.82576 36.6666 6.66671 36.6666Z" stroke="#008CFF" stroke-width="2" stroke-linecap="round" stroke-linejoin="round"/>
</svg>