<svg xmlns="http://www.w3.org/2000/svg" width="40" height="40" viewBox="0 0 40 40" fill="none">
  <path d="M10.8334 10.8334L13.3334 13.3334M28.3334 11.6667L26.6667 13.3334M26.6667 26.6667L29.1667 29.1667M13.3334 26.6667L11.6667 28.3334M28.3334 20.0001C28.3334 24.6025 24.6024 28.3334 20 28.3334C15.3976 28.3334 11.6667 24.6025 11.6667 20.0001C11.6667 15.3977 15.3976 11.6667 20 11.6667C24.6024 11.6667 28.3334 15.3977 28.3334 20.0001ZM11.6667 6.66675C11.6667 9.42817 9.42811 11.6667 6.66669 11.6667C3.90526 11.6667 1.66669 9.42817 1.66669 6.66675C1.66669 3.90532 3.90526 1.66675 6.66669 1.66675C9.42811 1.66675 11.6667 3.90532 11.6667 6.66675ZM35 8.33341C35 10.1744 33.5076 11.6667 31.6667 11.6667C29.8257 11.6667 28.3334 10.1744 28.3334 8.33341C28.3334 6.49246 29.8257 5.00008 31.6667 5.00008C33.5076 5.00008 35 6.49246 35 8.33341ZM11.6667 31.6667C11.6667 33.5077 10.1743 35.0001 8.33335 35.0001C6.4924 35.0001 5.00002 33.5077 5.00002 31.6667C5.00002 29.8258 6.4924 28.3334 8.33335 28.3334C10.1743 28.3334 11.6667 29.8258 11.6667 31.6667ZM38.3334 33.3334C38.3334 36.0948 36.0948 38.3334 33.3334 38.3334C30.5719 38.3334 28.3334 36.0948 28.3334 33.3334C28.3334 30.572 30.5719 28.3334 33.3334 28.3334C36.0948 28.3334 38.3334 30.572 38.3334 33.3334Z" stroke="#008CFF" stroke-width="2" stroke-linecap="round"/>
</svg>