<svg xmlns="http://www.w3.org/2000/svg" width="40" height="40" viewBox="0 0 40 40" fill="none">
  <path d="M20 3.33325H21C21 2.78097 20.5523 2.33325 20 2.33325V3.33325ZM33.9499 9.15851C33.6107 8.72266 32.9824 8.6443 32.5466 8.98349C32.1107 9.32268 32.0324 9.95098 32.3715 10.3868L33.1607 9.77267L33.9499 9.15851ZM20 11.8333C20.5523 11.8333 21 11.3855 21 10.8333C21 10.281 20.5523 9.83325 20 9.83325V10.8333V11.8333ZM28.0276 13.7608C27.6884 13.3249 27.0601 13.2465 26.6242 13.5857C26.1884 13.9249 26.11 14.5532 26.4492 14.9891L27.2384 14.3749L28.0276 13.7608ZM20 3.33325H19V17.4999H20H21V3.33325H20ZM20 3.33325V2.33325C10.2429 2.33325 2.33331 10.2429 2.33331 19.9999H3.33331H4.33331C4.33331 11.3475 11.3475 4.33325 20 4.33325V3.33325ZM3.33331 19.9999H2.33331C2.33331 29.757 10.2429 37.6666 20 37.6666V36.6666V35.6666C11.3475 35.6666 4.33331 28.6524 4.33331 19.9999H3.33331ZM20 36.6666V37.6666C29.757 37.6666 37.6666 29.757 37.6666 19.9999H36.6666H35.6666C35.6666 28.6524 28.6524 35.6666 20 35.6666V36.6666ZM36.6666 19.9999H37.6666C37.6666 15.9149 36.2789 12.1513 33.9499 9.15851L33.1607 9.77267L32.3715 10.3868C34.437 13.0409 35.6666 16.3754 35.6666 19.9999H36.6666ZM20 10.8333V9.83325C14.3851 9.83325 9.83331 14.3851 9.83331 19.9999H10.8333H11.8333C11.8333 15.4896 15.4897 11.8333 20 11.8333V10.8333ZM10.8333 19.9999H9.83331C9.83331 25.6148 14.3851 30.1666 20 30.1666V29.1666V28.1666C15.4897 28.1666 11.8333 24.5102 11.8333 19.9999H10.8333ZM20 29.1666V30.1666C25.6148 30.1666 30.1666 25.6148 30.1666 19.9999H29.1666H28.1666C28.1666 24.5102 24.5103 28.1666 20 28.1666V29.1666ZM29.1666 19.9999H30.1666C30.1666 17.6496 29.3679 15.483 28.0276 13.7608L27.2384 14.3749L26.4492 14.9891C27.5259 16.3726 28.1666 18.1101 28.1666 19.9999H29.1666ZM22.5 19.9999H21.5C21.5 20.8283 20.8284 21.4999 20 21.4999V22.4999V23.4999C21.933 23.4999 23.5 21.9329 23.5 19.9999H22.5ZM20 22.4999V21.4999C19.1716 21.4999 18.5 20.8283 18.5 19.9999H17.5H16.5C16.5 21.9329 18.067 23.4999 20 23.4999V22.4999ZM17.5 19.9999H18.5C18.5 19.1715 19.1716 18.4999 20 18.4999V17.4999V16.4999C18.067 16.4999 16.5 18.0669 16.5 19.9999H17.5ZM20 17.4999V18.4999C20.8284 18.4999 21.5 19.1715 21.5 19.9999H22.5H23.5C23.5 18.0669 21.933 16.4999 20 16.4999V17.4999Z" fill="#008CFF"/>
</svg>