<svg xmlns="http://www.w3.org/2000/svg" width="20" height="20" viewBox="0 0 20 20" fill="none">
  <rect width="20" height="20" rx="10" fill="#D50035"/>
  <path d="M10.0012 14.5226C9.16859 14.5226 8.49001 13.8679 8.49001 13.0635C8.49001 12.2582 9.16762 11.6026 10.0012 11.6026C10.8348 11.6026 11.5124 12.2582 11.5124 13.0635C11.5124 13.8679 10.8338 14.5226 10.0012 14.5226ZM11.5933 6.91443C11.5826 6.94363 10.2274 10.181 10.2274 10.181C10.1904 10.2696 10.1007 10.328 10.0022 10.328C9.90372 10.328 9.81402 10.2696 9.77697 10.181L8.42078 6.94269C8.33941 6.74641 8.29675 6.53716 8.29501 6.32573C8.29501 5.41678 9.06037 4.67737 10.0012 4.67737C10.2775 4.67805 10.5496 4.74349 10.794 4.86807C11.0384 4.99265 11.2478 5.17265 11.4044 5.39262C11.5609 5.6126 11.6599 5.86599 11.6928 6.13105C11.7257 6.3961 11.6916 6.66492 11.5933 6.91443Z" fill="white"/>
</svg>