<svg xmlns="http://www.w3.org/2000/svg" width="30" height="30" fill="none" viewBox="0 0 30 30"><path fill="#fff" d="M15.001 2.5c6.904 0 12.5 5.596 12.5 12.5s-5.596 12.5-12.5 12.5a12.4 12.4 0 0 1-6.287-1.694L2.506 27.5l1.69-6.21A12.44 12.44 0 0 1 2.501 15c0-6.904 5.596-12.5 12.5-12.5m-4.26 6.625-.25.01a1.3 1.3 0 0 0-.465.125q-.204.116-.367.285c-.15.141-.235.264-.327.383a3.4 3.4 0 0 0-.707 2.097c.002.612.162 1.209.412 1.766.512 1.128 1.353 2.322 2.463 3.428.268.266.53.534.813.782a11.8 11.8 0 0 0 4.8 2.558l.71.108c.23.013.462-.005.694-.016a2.5 2.5 0 0 0 1.042-.288q.245-.128.479-.276 0 .002.156-.112c.169-.125.272-.214.412-.36q.158-.162.263-.377c.097-.204.195-.593.235-.917.03-.247.021-.382.017-.466-.005-.134-.116-.273-.237-.331l-.728-.326s-1.087-.474-1.752-.777a.6.6 0 0 0-.22-.051.6.6 0 0 0-.473.159c-.006-.003-.09.069-.993 1.163a.44.44 0 0 1-.46.163 2 2 0 0 1-.24-.082l-.314-.136a7.5 7.5 0 0 1-1.969-1.253c-.157-.138-.304-.288-.454-.433a8 8 0 0 1-1.275-1.585l-.074-.118a1.3 1.3 0 0 1-.127-.257c-.047-.184.076-.331.076-.331s.304-.332.445-.512a5 5 0 0 0 .329-.467c.148-.237.194-.481.116-.67q-.524-1.282-1.085-2.551c-.073-.168-.292-.288-.491-.311a4 4 0 0 0-.203-.02 4 4 0 0 0-.503.005z"/></svg>